<svg width="42" height="42" viewBox="0 0 42 42" fill="none" xmlns="http://www.w3.org/2000/svg">
    <path
            d="M18.1035 30.2083C18.1035 31.3359 17.4552 32.25 16.6556 32.25C15.8559 32.25 15.2076 31.3359 15.2076 30.2083C15.2076 29.0807 15.8559 28.1666 16.6556 28.1666C17.4552 28.1666 18.1035 29.0807 18.1035 30.2083Z"
            fill="currentColor"/>
    <path
            d="M26.5014 30.2083C26.5014 31.3359 25.8532 32.25 25.0535 32.25C24.2539 32.25 23.6056 31.3359 23.6056 30.2083C23.6056 29.0807 24.2539 28.1666 25.0535 28.1666C25.8532 28.1666 26.5014 29.0807 26.5014 30.2083Z"
            fill="currentColor"/>
    <path
            d="M27.7859 4.31288L35.7034 11.795C38.1368 14.0944 39.4351 15.3214 40.1602 16.8002H33C28.286 16.8002 25.9289 16.8002 24.4645 15.2625C23 13.7248 23 11.25 23 6.30022L23.0184 0.557813C24.4023 1.1154 25.5302 2.18123 27.7859 4.31288Z"
            fill="currentColor"/>
    <path fill-rule="evenodd" clip-rule="evenodd"
          d="M25 42H17C9.45753 42 5.68629 42 3.34315 39.5397C1 37.0794 1 33.1196 1 25.2V16.8C1 8.8804 1 4.92061 3.34315 2.4603C5.68629 0 9.47739 0 17.0596 0C18.2716 0 19.2428 0 20.06 0.0349885C20.0331 0.202845 20.019 0.374068 20.0185 0.547188L20 6.49943C19.9998 8.80335 19.9997 10.8394 20.2098 12.4806C20.4376 14.2596 20.9606 16.0383 22.3431 17.4899C23.7257 18.9416 25.4197 19.4907 27.1139 19.7299C28.6769 19.9506 30.6161 19.9504 32.8103 19.9502L40.9148 19.9502C41 21.0722 41 22.4492 41 24.2821V25.2C41 33.1196 41 37.0794 38.6569 39.5397C36.3137 42 32.5425 42 25 42ZM11.0097 22.589C11.5092 22.1865 12.2381 22.2681 12.6378 22.7712L14.0705 24.575C15.8779 23.5547 18.1539 22.9167 21 22.9167C24.2699 22.9167 26.7873 23.7588 28.7062 25.0555L30.5206 22.7712C30.9202 22.2681 31.6491 22.1865 32.1487 22.589C32.6482 22.9915 32.7292 23.7257 32.3296 24.2288L30.488 26.5473C32.6425 28.7601 33.7062 31.6141 34.1144 34.0127C34.3306 35.2829 33.2837 36.3333 32.0042 36.3333H9.99576C8.7163 36.3333 7.6694 36.2829 7.88558 35.0127C8.33356 32.3807 9.5707 28.2003 12.1724 25.9205L10.8288 24.2288C10.4291 23.7257 10.5101 22.9915 11.0097 22.589Z"
          fill="currentColor"/>
</svg>