<svg width="42" height="42" viewBox="0 0 42 42" fill="none" xmlns="http://www.w3.org/2000/svg">
    <path fill-rule="evenodd" clip-rule="evenodd" d="M21.5435 24.9506C20.8295 24.234 19.6675 24.234 18.9547 24.9506C17.0825 26.8266 5.34416 38.5968 3.76343 40.1699C5.59743 42.1248 8.91926 42.5982 11.2471 41.1779L28.1031 31.5178C26.5478 29.9677 23.1204 26.5326 21.5435 24.9506Z" fill="currentColor"/>
    <path fill-rule="evenodd" clip-rule="evenodd" d="M18.9544 17.1818C19.6684 17.8983 20.8291 17.8983 21.5431 17.1818L25.4797 13.2363L25.4759 13.2338L28.155 10.5572L11.3129 0.859026C8.93803 -0.627523 5.51693 -0.11843 3.67529 1.87466C5.21911 3.40958 17.114 15.3401 18.9544 17.1818Z" fill="currentColor"/>
    <path fill-rule="evenodd" clip-rule="evenodd" d="M16.3722 22.3631C17.0874 21.6453 17.0874 20.4846 16.3722 19.7668L5.82886 9.19418L2.04249 5.4129C2.01576 5.63436 1.99667 5.8749 2.00049 6.10909L2.00303 35.9533C2.01194 36.2333 2.05267 36.5592 2.09594 36.8404C4.58922 34.3993 13.7656 25.0193 16.3722 22.3631Z" fill="currentColor"/>
    <path fill-rule="evenodd" clip-rule="evenodd" d="M37.0414 15.6736L31.4388 12.4473C29.797 14.0764 25.8045 18.0906 24.127 19.7693C23.4105 20.4871 23.4105 21.6478 24.127 22.3657C25.8146 24.0457 29.7385 27.9988 31.3905 29.6368L36.9892 26.4295C41.2223 24.3295 41.2541 17.8105 37.0414 15.6736Z" fill="currentColor"/>
</svg>