<svg width="42" height="42" viewBox="0 0 42 42" fill="none" xmlns="http://www.w3.org/2000/svg">
    <path fill-rule="evenodd" clip-rule="evenodd"
          d="M6.09616 2.60503C7.43575 4.03669 12.0665 8.39175 16.3868 12.2813L24.2404 19.3525L27.2141 16.3911L30.1867 13.4296L18.0821 6.7148C11.4254 3.02151 5.45701 0 4.81887 0C4.18174 0 4.75556 1.17236 6.09616 2.60503ZM2 21.0244V40.1857L12.0494 30.8879C17.5766 25.773 22.0989 21.3348 22.0989 21.0244C22.0989 20.7141 17.5766 16.2759 12.0494 11.161L2 1.86317V21.0244ZM28.6099 18.043L25.6996 21.0695L28.9416 24.2992L32.1835 27.529L35.935 25.5277C41.0954 22.7755 41.3466 19.9011 36.6656 17.1499C32.0579 14.4408 32.076 14.4388 28.6099 18.043ZM13.5569 32.4948C8.02967 37.6948 4.13249 41.9728 4.89625 41.9998C5.66101 42.0268 11.6756 39.0564 18.263 35.3981L30.24 28.7474L27.4884 25.8871C25.976 24.3143 24.4836 23.0298 24.1721 23.0328C23.8606 23.0368 19.0841 27.2937 13.5569 32.4948Z"
          fill="currentColor"/>
</svg>