<svg width="42" height="42" viewBox="0 0 42 42" fill="none" xmlns="http://www.w3.org/2000/svg">
    <path fill-rule="evenodd" clip-rule="evenodd"
          d="M2.95237 39.0479C5.90472 42 10.6565 42 20.16 42H21.84C31.3435 42 36.0953 42 39.0476 39.0479C42 36.0952 42 31.3433 42 21.8398V20.1597C42 10.6562 42 5.9043 39.0476 2.95215C36.0953 0 31.3435 0 21.84 0H20.16C10.6565 0 5.90472 0 2.95236 2.95215C0 5.90479 0 10.6562 0 20.1597V21.8398C0 31.3433 0 36.0952 2.95237 39.0479ZM27.2989 29.1011C27.2989 30.4199 26.0529 31.3867 24.7676 31.0659L21.8797 30.3442C21.5627 30.2314 21.3429 29.9351 21.3313 29.5933L20.9772 19.1479C20.8748 17.7656 19.8486 16.666 18.7762 16.3423C18.7159 16.3242 18.6516 16.3486 18.616 16.4004C18.5798 16.4531 18.5938 16.5259 18.6443 16.5649C18.9091 16.77 19.638 17.439 19.638 18.5928L19.6358 29.7798L19.6388 32.25C19.6388 33.5688 18.3927 34.5361 17.1074 34.2148L8.968 32.1816C7.83639 31.8989 7.04297 30.8867 7.04297 29.7256V16.0483C7.04297 14.7295 8.28899 13.7622 9.57433 14.0835L14.7031 15.3647V12.8989C14.7031 11.5801 15.9492 10.6133 17.2345 10.9341L22.3613 12.2148V9.75C22.3613 8.43115 23.6074 7.46387 24.8927 7.78516L33.0321 9.81836C34.1637 10.1011 34.9572 11.1133 34.9572 12.2744V25.9517C34.9572 27.2705 33.7111 28.2378 32.4258 27.9165L29.5944 27.2095C29.2496 27.1133 29.0056 26.8042 28.9935 26.4448L28.6393 16C28.5369 14.6177 27.5107 13.5181 26.4382 13.1943C26.3781 13.1763 26.3138 13.2007 26.2781 13.2524C26.2419 13.3052 26.2559 13.3779 26.3064 13.417C26.5712 13.6221 27.3001 14.291 27.3001 15.4448L27.2989 29.1011Z"
          fill="currentColor"/>
</svg>