<svg width="42" height="42" viewBox="0 0 42 42" fill="none" xmlns="http://www.w3.org/2000/svg">
    <path fill-rule="evenodd" clip-rule="evenodd"
          d="M42 21C42 32.598 32.598 42 21 42C9.40202 42 0 32.598 0 21C0 9.40202 9.40202 0 21 0C32.598 0 42 9.40202 42 21ZM21.7525 15.5031C19.71 16.3527 15.6277 18.1111 9.50579 20.7783C8.51169 21.1736 7.99093 21.5604 7.94352 21.9385C7.86341 22.5776 8.66373 22.8293 9.75356 23.172C9.9018 23.2186 10.0554 23.2669 10.2129 23.3181C11.2851 23.6666 12.7274 24.0744 13.4772 24.0906C14.1574 24.1053 14.9165 23.8249 15.7546 23.2494C21.4745 19.3883 24.4271 17.4367 24.6125 17.3946C24.7433 17.3649 24.9245 17.3276 25.0473 17.4367C25.1701 17.5459 25.158 17.7526 25.145 17.808C25.0658 18.146 21.9242 21.0667 20.2984 22.5781C19.7916 23.0493 19.4321 23.3835 19.3586 23.4599C19.194 23.6309 19.0262 23.7926 18.8649 23.9481C17.8688 24.9083 17.1218 25.6285 18.9063 26.8044C19.7638 27.3695 20.45 27.8368 21.1346 28.303C21.8823 28.8122 22.628 29.32 23.5928 29.9524C23.8386 30.1136 24.0734 30.2809 24.302 30.4439C25.1721 31.0642 25.9538 31.6215 26.9195 31.5326C27.4807 31.481 28.0603 30.9533 28.3547 29.3796C29.0504 25.6605 30.4178 17.6023 30.7339 14.2817C30.7615 13.9908 30.7267 13.6185 30.6987 13.455C30.6708 13.2916 30.6123 13.0587 30.3999 12.8863C30.1483 12.6821 29.7598 12.6391 29.5861 12.6421C28.7963 12.6561 27.5844 13.0774 21.7525 15.5031Z"
          fill="currentColor"/>
</svg>