<svg width="40" height="40" viewBox="0 0 40 40" fill="none" xmlns="http://www.w3.org/2000/svg">
<path d="M19.9999 28.3333C22.1774 28.3333 24.0297 28.7973 24.7158 29.4448C23.547 30.2594 21.9886 30.8333 20.0001 30.8333C18.0114 30.8333 16.453 30.2594 15.2842 29.4447C15.9704 28.7972 17.8226 28.3333 19.9999 28.3333Z" fill="white"/>
<path fill-rule="evenodd" clip-rule="evenodd" d="M36.6666 20C36.6666 29.2048 29.2047 36.6667 19.9999 36.6667C10.7952 36.6667 3.33325 29.2048 3.33325 20C3.33325 10.7953 10.7952 3.33334 19.9999 3.33334C29.2047 3.33334 36.6666 10.7953 36.6666 20ZM19.2288 12.304C18.3758 9.12068 14.2291 7.81216 12.1514 11.649C9.65502 10.1153 7.51068 11.0573 6.62946 12.8056C6.19834 13.6609 6.06955 14.7092 6.34975 15.7549C7.12241 18.6385 9.692 19.7329 11.8798 20.6646C12.1071 20.7614 12.3304 20.8566 12.5471 20.9517C13.3593 21.3083 14.1384 21.6402 14.7823 21.4677C15.4263 21.2952 15.9351 20.6181 16.4601 19.9032C16.5875 19.7297 16.7197 19.5534 16.8544 19.3743L16.8945 19.3209C18.3233 17.4201 20.0014 15.1876 19.2288 12.304ZM20.7109 12.3042C21.5639 9.12089 25.7106 7.81237 27.7882 11.6492C30.2846 10.1155 32.429 11.0576 33.3102 12.8058C33.7413 13.6611 33.8701 14.7094 33.5899 15.7551C32.8172 18.6387 30.2477 19.7331 28.0599 20.6648C27.8326 20.7616 27.6092 20.8568 27.3925 20.9519C26.5804 21.3085 25.8013 21.6405 25.1573 21.4679C24.5134 21.2954 24.0046 20.6184 23.4796 19.9034C23.3521 19.7299 23.2199 19.5537 23.0853 19.3745L23.0452 19.3211C21.6164 17.4203 19.9382 15.1878 20.7109 12.3042ZM11.3983 24.7314C11.7471 24.3985 12.2407 24.242 12.7362 24.3101C14.4662 24.5481 18.0227 24.9999 20.0001 24.9999C21.9776 24.9999 25.534 24.5481 27.2641 24.3101C27.7596 24.242 28.2531 24.3985 28.6019 24.7314C28.9631 25.0762 29.1521 25.6007 29.0128 26.1575C28.348 28.8156 25.4587 32.4999 20.0001 32.4999C14.5414 32.4999 11.6523 28.8156 10.9874 26.1575C10.8482 25.6007 11.0371 25.0762 11.3983 24.7314Z" fill="white"/>
</svg>
